<svg width="289" height="42" viewBox="0 0 289 42" fill="none" xmlns="http://www.w3.org/2000/svg">
<rect width="257" height="42" fill="black"/>
<rect x="59" width="198" height="42" fill="#0F0F0F"/>
<path d="M35.0072 8.0052L31.7653 8C28.1231 8 25.7694 10.4149 25.7694 14.1525V16.9893H22.5098C22.2281 16.9893 22 17.2176 22 17.4993V21.6094C22 21.8911 22.2284 22.1191 22.5098 22.1191H25.7694V32.4902C25.7694 32.7719 25.9974 33 26.2791 33H30.532C30.8136 33 31.0417 32.7716 31.0417 32.4902V22.1191H34.8529C35.1346 22.1191 35.3627 21.8911 35.3627 21.6094L35.3643 17.4993C35.3643 17.364 35.3104 17.2345 35.215 17.1388C35.1195 17.0431 34.9895 16.9893 34.8542 16.9893H31.0417V14.5845C31.0417 13.4287 31.3171 12.842 32.8227 12.842L35.0066 12.8412C35.288 12.8412 35.5161 12.6128 35.5161 12.3314V8.51497C35.5161 8.23382 35.2883 8.00572 35.0072 8.0052Z" fill="white" fill-opacity="0.8"/>
<path d="M78.512 24L76.174 20.724C75.8287 20.7707 75.5113 20.794 75.222 20.794H72.422V24H71.708V14.2H75.222C76.454 14.2 77.42 14.494 78.12 15.082C78.82 15.6607 79.17 16.468 79.17 17.504C79.17 18.2787 78.9693 18.932 78.568 19.464C78.176 19.9867 77.6113 20.3553 76.874 20.57L79.324 24H78.512ZM75.222 20.164C76.2673 20.164 77.0653 19.9353 77.616 19.478C78.1667 19.0113 78.442 18.3533 78.442 17.504C78.442 16.6547 78.1667 16.0013 77.616 15.544C77.0653 15.0773 76.2673 14.844 75.222 14.844H72.422V20.164H75.222ZM87.7342 20.514H81.4482C81.4668 21.0833 81.6115 21.592 81.8822 22.04C82.1528 22.4787 82.5168 22.8193 82.9742 23.062C83.4408 23.3047 83.9635 23.426 84.5422 23.426C85.0182 23.426 85.4568 23.342 85.8582 23.174C86.2688 22.9967 86.6095 22.74 86.8802 22.404L87.2862 22.866C86.9688 23.2487 86.5675 23.5427 86.0822 23.748C85.6062 23.9533 85.0882 24.056 84.5282 24.056C83.8002 24.056 83.1515 23.8973 82.5822 23.58C82.0128 23.2627 81.5648 22.824 81.2382 22.264C80.9208 21.704 80.7622 21.0647 80.7622 20.346C80.7622 19.6367 80.9115 19.002 81.2102 18.442C81.5182 17.8727 81.9382 17.4293 82.4702 17.112C83.0022 16.7947 83.5995 16.636 84.2622 16.636C84.9248 16.636 85.5175 16.7947 86.0402 17.112C86.5722 17.42 86.9875 17.854 87.2862 18.414C87.5942 18.974 87.7482 19.6087 87.7482 20.318L87.7342 20.514ZM84.2622 17.252C83.7488 17.252 83.2868 17.3687 82.8762 17.602C82.4655 17.826 82.1342 18.148 81.8822 18.568C81.6395 18.9787 81.4995 19.4453 81.4622 19.968H87.0622C87.0342 19.4453 86.8942 18.9787 86.6422 18.568C86.3902 18.1573 86.0588 17.8353 85.6482 17.602C85.2375 17.3687 84.7755 17.252 84.2622 17.252ZM96.4937 16.692V23.216C96.4937 24.4293 96.1997 25.3253 95.6117 25.904C95.0237 26.4827 94.137 26.772 92.9517 26.772C92.2797 26.772 91.645 26.6693 91.0477 26.464C90.4504 26.2587 89.9697 25.974 89.6057 25.61L89.9837 25.078C90.3477 25.414 90.7864 25.6753 91.2997 25.862C91.813 26.0487 92.359 26.142 92.9377 26.142C93.9084 26.142 94.627 25.9087 95.0937 25.442C95.5604 24.9847 95.7937 24.2707 95.7937 23.3V22.068C95.495 22.6 95.0797 23.0107 94.5477 23.3C94.0157 23.5893 93.4184 23.734 92.7557 23.734C92.0744 23.734 91.4537 23.5847 90.8937 23.286C90.343 22.978 89.909 22.5533 89.5917 22.012C89.2744 21.4707 89.1157 20.8593 89.1157 20.178C89.1157 19.4967 89.2744 18.8853 89.5917 18.344C89.909 17.8027 90.343 17.3827 90.8937 17.084C91.4537 16.7853 92.0744 16.636 92.7557 16.636C93.4277 16.636 94.0344 16.7853 94.5757 17.084C95.117 17.3827 95.5324 17.8027 95.8217 18.344V16.692H96.4937ZM92.8117 23.104C93.381 23.104 93.8944 22.9827 94.3517 22.74C94.809 22.488 95.1637 22.1427 95.4157 21.704C95.677 21.256 95.8077 20.7473 95.8077 20.178C95.8077 19.6087 95.677 19.1047 95.4157 18.666C95.1637 18.2273 94.809 17.8867 94.3517 17.644C93.8944 17.392 93.381 17.266 92.8117 17.266C92.2424 17.266 91.729 17.392 91.2717 17.644C90.8237 17.8867 90.469 18.2273 90.2077 18.666C89.9557 19.1047 89.8297 19.6087 89.8297 20.178C89.8297 20.7473 89.9557 21.256 90.2077 21.704C90.469 22.1427 90.8237 22.488 91.2717 22.74C91.729 22.9827 92.2424 23.104 92.8117 23.104ZM99.4567 16.692H100.157V24H99.4567V16.692ZM99.8067 14.914C99.648 14.914 99.5127 14.8627 99.4007 14.76C99.2887 14.648 99.2327 14.5127 99.2327 14.354C99.2327 14.1953 99.2887 14.06 99.4007 13.948C99.5127 13.836 99.648 13.78 99.8067 13.78C99.9653 13.78 100.101 13.836 100.213 13.948C100.325 14.0507 100.381 14.1813 100.381 14.34C100.381 14.4987 100.325 14.634 100.213 14.746C100.101 14.858 99.9653 14.914 99.8067 14.914ZM104.955 24.056C104.367 24.056 103.807 23.9673 103.275 23.79C102.743 23.6127 102.328 23.3887 102.029 23.118L102.351 22.558C102.65 22.81 103.032 23.02 103.499 23.188C103.975 23.356 104.47 23.44 104.983 23.44C105.72 23.44 106.262 23.3187 106.607 23.076C106.962 22.8333 107.139 22.4973 107.139 22.068C107.139 21.76 107.041 21.5173 106.845 21.34C106.658 21.1627 106.425 21.032 106.145 20.948C105.865 20.864 105.478 20.7753 104.983 20.682C104.404 20.5793 103.938 20.4673 103.583 20.346C103.228 20.2247 102.925 20.0287 102.673 19.758C102.421 19.4873 102.295 19.114 102.295 18.638C102.295 18.0593 102.533 17.5833 103.009 17.21C103.494 16.8273 104.18 16.636 105.067 16.636C105.534 16.636 105.996 16.7013 106.453 16.832C106.91 16.9627 107.284 17.1353 107.573 17.35L107.251 17.91C106.952 17.6953 106.612 17.532 106.229 17.42C105.846 17.308 105.454 17.252 105.053 17.252C104.372 17.252 103.858 17.378 103.513 17.63C103.168 17.882 102.995 18.2133 102.995 18.624C102.995 18.9507 103.093 19.2073 103.289 19.394C103.485 19.5713 103.723 19.7067 104.003 19.8C104.292 19.884 104.694 19.9773 105.207 20.08C105.776 20.1827 106.234 20.2947 106.579 20.416C106.934 20.528 107.232 20.7147 107.475 20.976C107.718 21.2373 107.839 21.5967 107.839 22.054C107.839 22.6607 107.587 23.146 107.083 23.51C106.579 23.874 105.87 24.056 104.955 24.056ZM113.419 23.538C113.241 23.706 113.017 23.8367 112.747 23.93C112.485 24.014 112.21 24.056 111.921 24.056C111.286 24.056 110.796 23.8833 110.451 23.538C110.105 23.1833 109.933 22.6933 109.933 22.068V17.294H108.589V16.692H109.933V15.096H110.633V16.692H112.957V17.294H110.633V21.998C110.633 22.474 110.745 22.838 110.969 23.09C111.202 23.3327 111.543 23.454 111.991 23.454C112.448 23.454 112.826 23.3187 113.125 23.048L113.419 23.538ZM121.285 20.514H114.999C115.018 21.0833 115.162 21.592 115.433 22.04C115.704 22.4787 116.068 22.8193 116.525 23.062C116.992 23.3047 117.514 23.426 118.093 23.426C118.569 23.426 119.008 23.342 119.409 23.174C119.82 22.9967 120.16 22.74 120.431 22.404L120.837 22.866C120.52 23.2487 120.118 23.5427 119.633 23.748C119.157 23.9533 118.639 24.056 118.079 24.056C117.351 24.056 116.702 23.8973 116.133 23.58C115.564 23.2627 115.116 22.824 114.789 22.264C114.472 21.704 114.313 21.0647 114.313 20.346C114.313 19.6367 114.462 19.002 114.761 18.442C115.069 17.8727 115.489 17.4293 116.021 17.112C116.553 16.7947 117.15 16.636 117.813 16.636C118.476 16.636 119.068 16.7947 119.591 17.112C120.123 17.42 120.538 17.854 120.837 18.414C121.145 18.974 121.299 19.6087 121.299 20.318L121.285 20.514ZM117.813 17.252C117.3 17.252 116.838 17.3687 116.427 17.602C116.016 17.826 115.685 18.148 115.433 18.568C115.19 18.9787 115.05 19.4453 115.013 19.968H120.613C120.585 19.4453 120.445 18.9787 120.193 18.568C119.941 18.1573 119.61 17.8353 119.199 17.602C118.788 17.3687 118.326 17.252 117.813 17.252ZM124.136 18.288C124.36 17.756 124.71 17.35 125.186 17.07C125.662 16.7807 126.241 16.636 126.922 16.636V17.322L126.754 17.308C125.942 17.308 125.308 17.5647 124.85 18.078C124.393 18.582 124.164 19.2867 124.164 20.192V24H123.464V16.692H124.136V18.288ZM138.968 16.692V24H138.296V22.432C138.053 22.9453 137.694 23.3467 137.218 23.636C136.742 23.916 136.182 24.056 135.538 24.056C134.586 24.056 133.839 23.79 133.298 23.258C132.757 22.726 132.486 21.9607 132.486 20.962V16.692H133.186V20.906C133.186 21.7273 133.396 22.3527 133.816 22.782C134.236 23.2113 134.829 23.426 135.594 23.426C136.415 23.426 137.064 23.1693 137.54 22.656C138.025 22.1427 138.268 21.452 138.268 20.584V16.692H138.968ZM143.783 24.056C143.195 24.056 142.635 23.9673 142.103 23.79C141.571 23.6127 141.156 23.3887 140.857 23.118L141.179 22.558C141.478 22.81 141.861 23.02 142.327 23.188C142.803 23.356 143.298 23.44 143.811 23.44C144.549 23.44 145.09 23.3187 145.435 23.076C145.79 22.8333 145.967 22.4973 145.967 22.068C145.967 21.76 145.869 21.5173 145.673 21.34C145.487 21.1627 145.253 21.032 144.973 20.948C144.693 20.864 144.306 20.7753 143.811 20.682C143.233 20.5793 142.766 20.4673 142.411 20.346C142.057 20.2247 141.753 20.0287 141.501 19.758C141.249 19.4873 141.123 19.114 141.123 18.638C141.123 18.0593 141.361 17.5833 141.837 17.21C142.323 16.8273 143.009 16.636 143.895 16.636C144.362 16.636 144.824 16.7013 145.281 16.832C145.739 16.9627 146.112 17.1353 146.401 17.35L146.079 17.91C145.781 17.6953 145.44 17.532 145.057 17.42C144.675 17.308 144.283 17.252 143.881 17.252C143.2 17.252 142.687 17.378 142.341 17.63C141.996 17.882 141.823 18.2133 141.823 18.624C141.823 18.9507 141.921 19.2073 142.117 19.394C142.313 19.5713 142.551 19.7067 142.831 19.8C143.121 19.884 143.522 19.9773 144.035 20.08C144.605 20.1827 145.062 20.2947 145.407 20.416C145.762 20.528 146.061 20.7147 146.303 20.976C146.546 21.2373 146.667 21.5967 146.667 22.054C146.667 22.6607 146.415 23.146 145.911 23.51C145.407 23.874 144.698 24.056 143.783 24.056ZM148.621 16.692H149.321V24H148.621V16.692ZM148.971 14.914C148.812 14.914 148.677 14.8627 148.565 14.76C148.453 14.648 148.397 14.5127 148.397 14.354C148.397 14.1953 148.453 14.06 148.565 13.948C148.677 13.836 148.812 13.78 148.971 13.78C149.129 13.78 149.265 13.836 149.377 13.948C149.489 14.0507 149.545 14.1813 149.545 14.34C149.545 14.4987 149.489 14.634 149.377 14.746C149.265 14.858 149.129 14.914 148.971 14.914ZM155.841 16.636C156.756 16.636 157.479 16.902 158.011 17.434C158.543 17.966 158.809 18.7313 158.809 19.73V24H158.109V19.786C158.109 18.9647 157.899 18.3393 157.479 17.91C157.068 17.4807 156.49 17.266 155.743 17.266C154.884 17.266 154.208 17.5227 153.713 18.036C153.218 18.5493 152.971 19.24 152.971 20.108V24H152.271V16.692H152.943V18.274C153.195 17.7607 153.568 17.3593 154.063 17.07C154.567 16.7807 155.16 16.636 155.841 16.636ZM168.285 16.692V23.216C168.285 24.4293 167.991 25.3253 167.403 25.904C166.815 26.4827 165.928 26.772 164.743 26.772C164.071 26.772 163.436 26.6693 162.839 26.464C162.241 26.2587 161.761 25.974 161.397 25.61L161.775 25.078C162.139 25.414 162.577 25.6753 163.091 25.862C163.604 26.0487 164.15 26.142 164.729 26.142C165.699 26.142 166.418 25.9087 166.885 25.442C167.351 24.9847 167.585 24.2707 167.585 23.3V22.068C167.286 22.6 166.871 23.0107 166.339 23.3C165.807 23.5893 165.209 23.734 164.547 23.734C163.865 23.734 163.245 23.5847 162.685 23.286C162.134 22.978 161.7 22.5533 161.383 22.012C161.065 21.4707 160.907 20.8593 160.907 20.178C160.907 19.4967 161.065 18.8853 161.383 18.344C161.7 17.8027 162.134 17.3827 162.685 17.084C163.245 16.7853 163.865 16.636 164.547 16.636C165.219 16.636 165.825 16.7853 166.367 17.084C166.908 17.3827 167.323 17.8027 167.613 18.344V16.692H168.285ZM164.603 23.104C165.172 23.104 165.685 22.9827 166.143 22.74C166.6 22.488 166.955 22.1427 167.207 21.704C167.468 21.256 167.599 20.7473 167.599 20.178C167.599 19.6087 167.468 19.1047 167.207 18.666C166.955 18.2273 166.6 17.8867 166.143 17.644C165.685 17.392 165.172 17.266 164.603 17.266C164.033 17.266 163.52 17.392 163.063 17.644C162.615 17.8867 162.26 18.2273 161.999 18.666C161.747 19.1047 161.621 19.6087 161.621 20.178C161.621 20.7473 161.747 21.256 161.999 21.704C162.26 22.1427 162.615 22.488 163.063 22.74C163.52 22.9827 164.033 23.104 164.603 23.104ZM175.781 14.844V19.03H181.003V19.674H175.781V24H175.067V14.2H181.619V14.844H175.781ZM185.811 16.636C186.717 16.636 187.412 16.8693 187.897 17.336C188.383 17.7933 188.625 18.47 188.625 19.366V24H187.953V22.698C187.72 23.1273 187.379 23.4633 186.931 23.706C186.483 23.9393 185.947 24.056 185.321 24.056C184.509 24.056 183.865 23.8647 183.389 23.482C182.923 23.0993 182.689 22.5953 182.689 21.97C182.689 21.3633 182.904 20.8733 183.333 20.5C183.772 20.1173 184.467 19.926 185.419 19.926H187.925V19.338C187.925 18.6567 187.739 18.1387 187.365 17.784C187.001 17.4293 186.465 17.252 185.755 17.252C185.27 17.252 184.803 17.336 184.355 17.504C183.917 17.672 183.543 17.896 183.235 18.176L182.885 17.672C183.249 17.3453 183.688 17.0933 184.201 16.916C184.715 16.7293 185.251 16.636 185.811 16.636ZM185.419 23.482C186.026 23.482 186.539 23.342 186.959 23.062C187.389 22.782 187.711 22.376 187.925 21.844V20.472H185.433C184.715 20.472 184.192 20.6027 183.865 20.864C183.548 21.1253 183.389 21.4847 183.389 21.942C183.389 22.418 183.567 22.796 183.921 23.076C184.276 23.3467 184.775 23.482 185.419 23.482ZM194.421 24.056C193.712 24.056 193.077 23.8973 192.517 23.58C191.957 23.2627 191.518 22.824 191.201 22.264C190.884 21.6947 190.725 21.0553 190.725 20.346C190.725 19.6273 190.884 18.988 191.201 18.428C191.518 17.8587 191.957 17.42 192.517 17.112C193.077 16.7947 193.712 16.636 194.421 16.636C195.009 16.636 195.541 16.7527 196.017 16.986C196.502 17.21 196.894 17.5413 197.193 17.98L196.675 18.358C196.414 17.994 196.087 17.7233 195.695 17.546C195.312 17.3593 194.888 17.266 194.421 17.266C193.852 17.266 193.338 17.3967 192.881 17.658C192.433 17.91 192.078 18.2693 191.817 18.736C191.565 19.2027 191.439 19.7393 191.439 20.346C191.439 20.9527 191.565 21.4893 191.817 21.956C192.078 22.4227 192.433 22.7867 192.881 23.048C193.338 23.3 193.852 23.426 194.421 23.426C194.888 23.426 195.312 23.3373 195.695 23.16C196.087 22.9733 196.414 22.698 196.675 22.334L197.193 22.712C196.894 23.1507 196.502 23.4867 196.017 23.72C195.541 23.944 195.009 24.056 194.421 24.056ZM205.34 20.514H199.054C199.072 21.0833 199.217 21.592 199.488 22.04C199.758 22.4787 200.122 22.8193 200.58 23.062C201.046 23.3047 201.569 23.426 202.148 23.426C202.624 23.426 203.062 23.342 203.464 23.174C203.874 22.9967 204.215 22.74 204.486 22.404L204.892 22.866C204.574 23.2487 204.173 23.5427 203.688 23.748C203.212 23.9533 202.694 24.056 202.134 24.056C201.406 24.056 200.757 23.8973 200.188 23.58C199.618 23.2627 199.17 22.824 198.844 22.264C198.526 21.704 198.368 21.0647 198.368 20.346C198.368 19.6367 198.517 19.002 198.816 18.442C199.124 17.8727 199.544 17.4293 200.076 17.112C200.608 16.7947 201.205 16.636 201.868 16.636C202.53 16.636 203.123 16.7947 203.646 17.112C204.178 17.42 204.593 17.854 204.892 18.414C205.2 18.974 205.354 19.6087 205.354 20.318L205.34 20.514ZM201.868 17.252C201.354 17.252 200.892 17.3687 200.482 17.602C200.071 17.826 199.74 18.148 199.488 18.568C199.245 18.9787 199.105 19.4453 199.068 19.968H204.668C204.64 19.4453 204.5 18.9787 204.248 18.568C203.996 18.1573 203.664 17.8353 203.254 17.602C202.843 17.3687 202.381 17.252 201.868 17.252ZM211.187 16.636C211.868 16.636 212.484 16.7947 213.035 17.112C213.586 17.42 214.015 17.8587 214.323 18.428C214.64 18.988 214.799 19.6273 214.799 20.346C214.799 21.0647 214.64 21.704 214.323 22.264C214.015 22.824 213.586 23.2627 213.035 23.58C212.484 23.8973 211.868 24.056 211.187 24.056C210.534 24.056 209.941 23.902 209.409 23.594C208.886 23.2767 208.48 22.838 208.191 22.278V24H207.519V13.612H208.219V18.358C208.508 17.8167 208.914 17.3967 209.437 17.098C209.96 16.79 210.543 16.636 211.187 16.636ZM211.145 23.426C211.705 23.426 212.209 23.2953 212.657 23.034C213.105 22.7727 213.455 22.4087 213.707 21.942C213.968 21.4753 214.099 20.9433 214.099 20.346C214.099 19.7487 213.968 19.2167 213.707 18.75C213.455 18.2833 213.105 17.9193 212.657 17.658C212.209 17.3967 211.705 17.266 211.145 17.266C210.585 17.266 210.081 17.3967 209.633 17.658C209.194 17.9193 208.844 18.2833 208.583 18.75C208.331 19.2167 208.205 19.7487 208.205 20.346C208.205 20.9433 208.331 21.4753 208.583 21.942C208.844 22.4087 209.194 22.7727 209.633 23.034C210.081 23.2953 210.585 23.426 211.145 23.426ZM219.822 24.056C219.132 24.056 218.506 23.8973 217.946 23.58C217.396 23.2627 216.962 22.824 216.644 22.264C216.327 21.6947 216.168 21.0553 216.168 20.346C216.168 19.6367 216.327 19.002 216.644 18.442C216.962 17.8727 217.396 17.4293 217.946 17.112C218.506 16.7947 219.132 16.636 219.822 16.636C220.513 16.636 221.134 16.7947 221.684 17.112C222.244 17.4293 222.683 17.8727 223 18.442C223.318 19.002 223.476 19.6367 223.476 20.346C223.476 21.0553 223.318 21.6947 223 22.264C222.683 22.824 222.244 23.2627 221.684 23.58C221.134 23.8973 220.513 24.056 219.822 24.056ZM219.822 23.426C220.382 23.426 220.882 23.2953 221.32 23.034C221.768 22.7727 222.118 22.4087 222.37 21.942C222.632 21.4753 222.762 20.9433 222.762 20.346C222.762 19.7487 222.632 19.2167 222.37 18.75C222.118 18.2833 221.768 17.9193 221.32 17.658C220.882 17.3967 220.382 17.266 219.822 17.266C219.262 17.266 218.758 17.3967 218.31 17.658C217.872 17.9193 217.522 18.2833 217.26 18.75C217.008 19.2167 216.882 19.7487 216.882 20.346C216.882 20.9433 217.008 21.4753 217.26 21.942C217.522 22.4087 217.872 22.7727 218.31 23.034C218.758 23.2953 219.262 23.426 219.822 23.426ZM228.504 24.056C227.813 24.056 227.188 23.8973 226.628 23.58C226.077 23.2627 225.643 22.824 225.326 22.264C225.009 21.6947 224.85 21.0553 224.85 20.346C224.85 19.6367 225.009 19.002 225.326 18.442C225.643 17.8727 226.077 17.4293 226.628 17.112C227.188 16.7947 227.813 16.636 228.504 16.636C229.195 16.636 229.815 16.7947 230.366 17.112C230.926 17.4293 231.365 17.8727 231.682 18.442C231.999 19.002 232.158 19.6367 232.158 20.346C232.158 21.0553 231.999 21.6947 231.682 22.264C231.365 22.824 230.926 23.2627 230.366 23.58C229.815 23.8973 229.195 24.056 228.504 24.056ZM228.504 23.426C229.064 23.426 229.563 23.2953 230.002 23.034C230.45 22.7727 230.8 22.4087 231.052 21.942C231.313 21.4753 231.444 20.9433 231.444 20.346C231.444 19.7487 231.313 19.2167 231.052 18.75C230.8 18.2833 230.45 17.9193 230.002 17.658C229.563 17.3967 229.064 17.266 228.504 17.266C227.944 17.266 227.44 17.3967 226.992 17.658C226.553 17.9193 226.203 18.2833 225.942 18.75C225.69 19.2167 225.564 19.7487 225.564 20.346C225.564 20.9433 225.69 21.4753 225.942 21.942C226.203 22.4087 226.553 22.7727 226.992 23.034C227.44 23.2953 227.944 23.426 228.504 23.426ZM236.934 20.094L235.03 21.83V24H234.33V13.612H235.03V20.962L239.706 16.692H240.602L237.452 19.646L240.91 24H240.042L236.934 20.094Z" fill="white"/>
</svg>
