<svg width="289" height="42" viewBox="0 0 289 42" fill="none" xmlns="http://www.w3.org/2000/svg">
<rect width="257" height="42" fill="black"/>
<rect x="59" width="198" height="42" fill="#0F0F0F"/>
<path d="M33.0625 19.25V22.375H40.4375C39.6875 26.75 36.1875 29.875 31.8125 29.875C26.6875 29.875 22.4375 25.625 22.4375 20.5C22.4375 15.375 26.6875 11.125 31.8125 11.125C34.4375 11.125 36.6875 12.25 38.3125 14L40.5625 11.75C38.3125 9.5 35.3125 8 31.8125 8C24.9375 8 19.3125 13.625 19.3125 20.5C19.3125 27.375 24.9375 33 31.8125 33C38.6875 33 43.6875 27.375 43.6875 20.5V19.25H33.0625Z" fill="white" fill-opacity="0.8"/>
<path d="M78.512 24L76.174 20.724C75.8287 20.7707 75.5113 20.794 75.222 20.794H72.422V24H71.708V14.2H75.222C76.454 14.2 77.42 14.494 78.12 15.082C78.82 15.6607 79.17 16.468 79.17 17.504C79.17 18.2787 78.9693 18.932 78.568 19.464C78.176 19.9867 77.6113 20.3553 76.874 20.57L79.324 24H78.512ZM75.222 20.164C76.2673 20.164 77.0653 19.9353 77.616 19.478C78.1667 19.0113 78.442 18.3533 78.442 17.504C78.442 16.6547 78.1667 16.0013 77.616 15.544C77.0653 15.0773 76.2673 14.844 75.222 14.844H72.422V20.164H75.222ZM87.7342 20.514H81.4482C81.4668 21.0833 81.6115 21.592 81.8822 22.04C82.1528 22.4787 82.5168 22.8193 82.9742 23.062C83.4408 23.3047 83.9635 23.426 84.5422 23.426C85.0182 23.426 85.4568 23.342 85.8582 23.174C86.2688 22.9967 86.6095 22.74 86.8802 22.404L87.2862 22.866C86.9688 23.2487 86.5675 23.5427 86.0822 23.748C85.6062 23.9533 85.0882 24.056 84.5282 24.056C83.8002 24.056 83.1515 23.8973 82.5822 23.58C82.0128 23.2627 81.5648 22.824 81.2382 22.264C80.9208 21.704 80.7622 21.0647 80.7622 20.346C80.7622 19.6367 80.9115 19.002 81.2102 18.442C81.5182 17.8727 81.9382 17.4293 82.4702 17.112C83.0022 16.7947 83.5995 16.636 84.2622 16.636C84.9248 16.636 85.5175 16.7947 86.0402 17.112C86.5722 17.42 86.9875 17.854 87.2862 18.414C87.5942 18.974 87.7482 19.6087 87.7482 20.318L87.7342 20.514ZM84.2622 17.252C83.7488 17.252 83.2868 17.3687 82.8762 17.602C82.4655 17.826 82.1342 18.148 81.8822 18.568C81.6395 18.9787 81.4995 19.4453 81.4622 19.968H87.0622C87.0342 19.4453 86.8942 18.9787 86.6422 18.568C86.3902 18.1573 86.0588 17.8353 85.6482 17.602C85.2375 17.3687 84.7755 17.252 84.2622 17.252ZM96.4937 16.692V23.216C96.4937 24.4293 96.1997 25.3253 95.6117 25.904C95.0237 26.4827 94.137 26.772 92.9517 26.772C92.2797 26.772 91.645 26.6693 91.0477 26.464C90.4504 26.2587 89.9697 25.974 89.6057 25.61L89.9837 25.078C90.3477 25.414 90.7864 25.6753 91.2997 25.862C91.813 26.0487 92.359 26.142 92.9377 26.142C93.9084 26.142 94.627 25.9087 95.0937 25.442C95.5604 24.9847 95.7937 24.2707 95.7937 23.3V22.068C95.495 22.6 95.0797 23.0107 94.5477 23.3C94.0157 23.5893 93.4184 23.734 92.7557 23.734C92.0744 23.734 91.4537 23.5847 90.8937 23.286C90.343 22.978 89.909 22.5533 89.5917 22.012C89.2744 21.4707 89.1157 20.8593 89.1157 20.178C89.1157 19.4967 89.2744 18.8853 89.5917 18.344C89.909 17.8027 90.343 17.3827 90.8937 17.084C91.4537 16.7853 92.0744 16.636 92.7557 16.636C93.4277 16.636 94.0344 16.7853 94.5757 17.084C95.117 17.3827 95.5324 17.8027 95.8217 18.344V16.692H96.4937ZM92.8117 23.104C93.381 23.104 93.8944 22.9827 94.3517 22.74C94.809 22.488 95.1637 22.1427 95.4157 21.704C95.677 21.256 95.8077 20.7473 95.8077 20.178C95.8077 19.6087 95.677 19.1047 95.4157 18.666C95.1637 18.2273 94.809 17.8867 94.3517 17.644C93.8944 17.392 93.381 17.266 92.8117 17.266C92.2424 17.266 91.729 17.392 91.2717 17.644C90.8237 17.8867 90.469 18.2273 90.2077 18.666C89.9557 19.1047 89.8297 19.6087 89.8297 20.178C89.8297 20.7473 89.9557 21.256 90.2077 21.704C90.469 22.1427 90.8237 22.488 91.2717 22.74C91.729 22.9827 92.2424 23.104 92.8117 23.104ZM99.4567 16.692H100.157V24H99.4567V16.692ZM99.8067 14.914C99.648 14.914 99.5127 14.8627 99.4007 14.76C99.2887 14.648 99.2327 14.5127 99.2327 14.354C99.2327 14.1953 99.2887 14.06 99.4007 13.948C99.5127 13.836 99.648 13.78 99.8067 13.78C99.9653 13.78 100.101 13.836 100.213 13.948C100.325 14.0507 100.381 14.1813 100.381 14.34C100.381 14.4987 100.325 14.634 100.213 14.746C100.101 14.858 99.9653 14.914 99.8067 14.914ZM104.955 24.056C104.367 24.056 103.807 23.9673 103.275 23.79C102.743 23.6127 102.328 23.3887 102.029 23.118L102.351 22.558C102.65 22.81 103.032 23.02 103.499 23.188C103.975 23.356 104.47 23.44 104.983 23.44C105.72 23.44 106.262 23.3187 106.607 23.076C106.962 22.8333 107.139 22.4973 107.139 22.068C107.139 21.76 107.041 21.5173 106.845 21.34C106.658 21.1627 106.425 21.032 106.145 20.948C105.865 20.864 105.478 20.7753 104.983 20.682C104.404 20.5793 103.938 20.4673 103.583 20.346C103.228 20.2247 102.925 20.0287 102.673 19.758C102.421 19.4873 102.295 19.114 102.295 18.638C102.295 18.0593 102.533 17.5833 103.009 17.21C103.494 16.8273 104.18 16.636 105.067 16.636C105.534 16.636 105.996 16.7013 106.453 16.832C106.91 16.9627 107.284 17.1353 107.573 17.35L107.251 17.91C106.952 17.6953 106.612 17.532 106.229 17.42C105.846 17.308 105.454 17.252 105.053 17.252C104.372 17.252 103.858 17.378 103.513 17.63C103.168 17.882 102.995 18.2133 102.995 18.624C102.995 18.9507 103.093 19.2073 103.289 19.394C103.485 19.5713 103.723 19.7067 104.003 19.8C104.292 19.884 104.694 19.9773 105.207 20.08C105.776 20.1827 106.234 20.2947 106.579 20.416C106.934 20.528 107.232 20.7147 107.475 20.976C107.718 21.2373 107.839 21.5967 107.839 22.054C107.839 22.6607 107.587 23.146 107.083 23.51C106.579 23.874 105.87 24.056 104.955 24.056ZM113.419 23.538C113.241 23.706 113.017 23.8367 112.747 23.93C112.485 24.014 112.21 24.056 111.921 24.056C111.286 24.056 110.796 23.8833 110.451 23.538C110.105 23.1833 109.933 22.6933 109.933 22.068V17.294H108.589V16.692H109.933V15.096H110.633V16.692H112.957V17.294H110.633V21.998C110.633 22.474 110.745 22.838 110.969 23.09C111.202 23.3327 111.543 23.454 111.991 23.454C112.448 23.454 112.826 23.3187 113.125 23.048L113.419 23.538ZM121.285 20.514H114.999C115.018 21.0833 115.162 21.592 115.433 22.04C115.704 22.4787 116.068 22.8193 116.525 23.062C116.992 23.3047 117.514 23.426 118.093 23.426C118.569 23.426 119.008 23.342 119.409 23.174C119.82 22.9967 120.16 22.74 120.431 22.404L120.837 22.866C120.52 23.2487 120.118 23.5427 119.633 23.748C119.157 23.9533 118.639 24.056 118.079 24.056C117.351 24.056 116.702 23.8973 116.133 23.58C115.564 23.2627 115.116 22.824 114.789 22.264C114.472 21.704 114.313 21.0647 114.313 20.346C114.313 19.6367 114.462 19.002 114.761 18.442C115.069 17.8727 115.489 17.4293 116.021 17.112C116.553 16.7947 117.15 16.636 117.813 16.636C118.476 16.636 119.068 16.7947 119.591 17.112C120.123 17.42 120.538 17.854 120.837 18.414C121.145 18.974 121.299 19.6087 121.299 20.318L121.285 20.514ZM117.813 17.252C117.3 17.252 116.838 17.3687 116.427 17.602C116.016 17.826 115.685 18.148 115.433 18.568C115.19 18.9787 115.05 19.4453 115.013 19.968H120.613C120.585 19.4453 120.445 18.9787 120.193 18.568C119.941 18.1573 119.61 17.8353 119.199 17.602C118.788 17.3687 118.326 17.252 117.813 17.252ZM124.136 18.288C124.36 17.756 124.71 17.35 125.186 17.07C125.662 16.7807 126.241 16.636 126.922 16.636V17.322L126.754 17.308C125.942 17.308 125.308 17.5647 124.85 18.078C124.393 18.582 124.164 19.2867 124.164 20.192V24H123.464V16.692H124.136V18.288ZM138.968 16.692V24H138.296V22.432C138.053 22.9453 137.694 23.3467 137.218 23.636C136.742 23.916 136.182 24.056 135.538 24.056C134.586 24.056 133.839 23.79 133.298 23.258C132.757 22.726 132.486 21.9607 132.486 20.962V16.692H133.186V20.906C133.186 21.7273 133.396 22.3527 133.816 22.782C134.236 23.2113 134.829 23.426 135.594 23.426C136.415 23.426 137.064 23.1693 137.54 22.656C138.025 22.1427 138.268 21.452 138.268 20.584V16.692H138.968ZM143.783 24.056C143.195 24.056 142.635 23.9673 142.103 23.79C141.571 23.6127 141.156 23.3887 140.857 23.118L141.179 22.558C141.478 22.81 141.861 23.02 142.327 23.188C142.803 23.356 143.298 23.44 143.811 23.44C144.549 23.44 145.09 23.3187 145.435 23.076C145.79 22.8333 145.967 22.4973 145.967 22.068C145.967 21.76 145.869 21.5173 145.673 21.34C145.487 21.1627 145.253 21.032 144.973 20.948C144.693 20.864 144.306 20.7753 143.811 20.682C143.233 20.5793 142.766 20.4673 142.411 20.346C142.057 20.2247 141.753 20.0287 141.501 19.758C141.249 19.4873 141.123 19.114 141.123 18.638C141.123 18.0593 141.361 17.5833 141.837 17.21C142.323 16.8273 143.009 16.636 143.895 16.636C144.362 16.636 144.824 16.7013 145.281 16.832C145.739 16.9627 146.112 17.1353 146.401 17.35L146.079 17.91C145.781 17.6953 145.44 17.532 145.057 17.42C144.675 17.308 144.283 17.252 143.881 17.252C143.2 17.252 142.687 17.378 142.341 17.63C141.996 17.882 141.823 18.2133 141.823 18.624C141.823 18.9507 141.921 19.2073 142.117 19.394C142.313 19.5713 142.551 19.7067 142.831 19.8C143.121 19.884 143.522 19.9773 144.035 20.08C144.605 20.1827 145.062 20.2947 145.407 20.416C145.762 20.528 146.061 20.7147 146.303 20.976C146.546 21.2373 146.667 21.5967 146.667 22.054C146.667 22.6607 146.415 23.146 145.911 23.51C145.407 23.874 144.698 24.056 143.783 24.056ZM148.621 16.692H149.321V24H148.621V16.692ZM148.971 14.914C148.812 14.914 148.677 14.8627 148.565 14.76C148.453 14.648 148.397 14.5127 148.397 14.354C148.397 14.1953 148.453 14.06 148.565 13.948C148.677 13.836 148.812 13.78 148.971 13.78C149.129 13.78 149.265 13.836 149.377 13.948C149.489 14.0507 149.545 14.1813 149.545 14.34C149.545 14.4987 149.489 14.634 149.377 14.746C149.265 14.858 149.129 14.914 148.971 14.914ZM155.841 16.636C156.756 16.636 157.479 16.902 158.011 17.434C158.543 17.966 158.809 18.7313 158.809 19.73V24H158.109V19.786C158.109 18.9647 157.899 18.3393 157.479 17.91C157.068 17.4807 156.49 17.266 155.743 17.266C154.884 17.266 154.208 17.5227 153.713 18.036C153.218 18.5493 152.971 19.24 152.971 20.108V24H152.271V16.692H152.943V18.274C153.195 17.7607 153.568 17.3593 154.063 17.07C154.567 16.7807 155.16 16.636 155.841 16.636ZM168.285 16.692V23.216C168.285 24.4293 167.991 25.3253 167.403 25.904C166.815 26.4827 165.928 26.772 164.743 26.772C164.071 26.772 163.436 26.6693 162.839 26.464C162.241 26.2587 161.761 25.974 161.397 25.61L161.775 25.078C162.139 25.414 162.577 25.6753 163.091 25.862C163.604 26.0487 164.15 26.142 164.729 26.142C165.699 26.142 166.418 25.9087 166.885 25.442C167.351 24.9847 167.585 24.2707 167.585 23.3V22.068C167.286 22.6 166.871 23.0107 166.339 23.3C165.807 23.5893 165.209 23.734 164.547 23.734C163.865 23.734 163.245 23.5847 162.685 23.286C162.134 22.978 161.7 22.5533 161.383 22.012C161.065 21.4707 160.907 20.8593 160.907 20.178C160.907 19.4967 161.065 18.8853 161.383 18.344C161.7 17.8027 162.134 17.3827 162.685 17.084C163.245 16.7853 163.865 16.636 164.547 16.636C165.219 16.636 165.825 16.7853 166.367 17.084C166.908 17.3827 167.323 17.8027 167.613 18.344V16.692H168.285ZM164.603 23.104C165.172 23.104 165.685 22.9827 166.143 22.74C166.6 22.488 166.955 22.1427 167.207 21.704C167.468 21.256 167.599 20.7473 167.599 20.178C167.599 19.6087 167.468 19.1047 167.207 18.666C166.955 18.2273 166.6 17.8867 166.143 17.644C165.685 17.392 165.172 17.266 164.603 17.266C164.033 17.266 163.52 17.392 163.063 17.644C162.615 17.8867 162.26 18.2273 161.999 18.666C161.747 19.1047 161.621 19.6087 161.621 20.178C161.621 20.7473 161.747 21.256 161.999 21.704C162.26 22.1427 162.615 22.488 163.063 22.74C163.52 22.9827 164.033 23.104 164.603 23.104ZM182.067 19.142H182.753V22.81C182.324 23.2207 181.801 23.5333 181.185 23.748C180.579 23.9627 179.935 24.07 179.253 24.07C178.283 24.07 177.405 23.8553 176.621 23.426C175.847 22.9967 175.235 22.404 174.787 21.648C174.349 20.892 174.129 20.0427 174.129 19.1C174.129 18.1573 174.349 17.308 174.787 16.552C175.235 15.796 175.847 15.2033 176.621 14.774C177.405 14.3447 178.287 14.13 179.267 14.13C179.986 14.13 180.644 14.2467 181.241 14.48C181.848 14.704 182.366 15.0353 182.795 15.474L182.347 15.95C181.937 15.5393 181.475 15.2453 180.961 15.068C180.457 14.8813 179.897 14.788 179.281 14.788C178.441 14.788 177.681 14.9747 176.999 15.348C176.327 15.7213 175.8 16.2393 175.417 16.902C175.035 17.5553 174.843 18.288 174.843 19.1C174.843 19.9027 175.035 20.6353 175.417 21.298C175.809 21.9513 176.341 22.4693 177.013 22.852C177.685 23.2253 178.441 23.412 179.281 23.412C180.401 23.412 181.33 23.1133 182.067 22.516V19.142ZM188.528 24.056C187.837 24.056 187.212 23.8973 186.652 23.58C186.101 23.2627 185.667 22.824 185.35 22.264C185.032 21.6947 184.874 21.0553 184.874 20.346C184.874 19.6367 185.032 19.002 185.35 18.442C185.667 17.8727 186.101 17.4293 186.652 17.112C187.212 16.7947 187.837 16.636 188.528 16.636C189.218 16.636 189.839 16.7947 190.39 17.112C190.95 17.4293 191.388 17.8727 191.706 18.442C192.023 19.002 192.182 19.6367 192.182 20.346C192.182 21.0553 192.023 21.6947 191.706 22.264C191.388 22.824 190.95 23.2627 190.39 23.58C189.839 23.8973 189.218 24.056 188.528 24.056ZM188.528 23.426C189.088 23.426 189.587 23.2953 190.026 23.034C190.474 22.7727 190.824 22.4087 191.076 21.942C191.337 21.4753 191.468 20.9433 191.468 20.346C191.468 19.7487 191.337 19.2167 191.076 18.75C190.824 18.2833 190.474 17.9193 190.026 17.658C189.587 17.3967 189.088 17.266 188.528 17.266C187.968 17.266 187.464 17.3967 187.016 17.658C186.577 17.9193 186.227 18.2833 185.966 18.75C185.714 19.2167 185.588 19.7487 185.588 20.346C185.588 20.9433 185.714 21.4753 185.966 21.942C186.227 22.4087 186.577 22.7727 187.016 23.034C187.464 23.2953 187.968 23.426 188.528 23.426ZM197.209 24.056C196.518 24.056 195.893 23.8973 195.333 23.58C194.782 23.2627 194.348 22.824 194.031 22.264C193.714 21.6947 193.555 21.0553 193.555 20.346C193.555 19.6367 193.714 19.002 194.031 18.442C194.348 17.8727 194.782 17.4293 195.333 17.112C195.893 16.7947 196.518 16.636 197.209 16.636C197.9 16.636 198.52 16.7947 199.071 17.112C199.631 17.4293 200.07 17.8727 200.387 18.442C200.704 19.002 200.863 19.6367 200.863 20.346C200.863 21.0553 200.704 21.6947 200.387 22.264C200.07 22.824 199.631 23.2627 199.071 23.58C198.52 23.8973 197.9 24.056 197.209 24.056ZM197.209 23.426C197.769 23.426 198.268 23.2953 198.707 23.034C199.155 22.7727 199.505 22.4087 199.757 21.942C200.018 21.4753 200.149 20.9433 200.149 20.346C200.149 19.7487 200.018 19.2167 199.757 18.75C199.505 18.2833 199.155 17.9193 198.707 17.658C198.268 17.3967 197.769 17.266 197.209 17.266C196.649 17.266 196.145 17.3967 195.697 17.658C195.258 17.9193 194.908 18.2833 194.647 18.75C194.395 19.2167 194.269 19.7487 194.269 20.346C194.269 20.9433 194.395 21.4753 194.647 21.942C194.908 22.4087 195.258 22.7727 195.697 23.034C196.145 23.2953 196.649 23.426 197.209 23.426ZM209.615 16.692V23.216C209.615 24.4293 209.321 25.3253 208.733 25.904C208.145 26.4827 207.258 26.772 206.073 26.772C205.401 26.772 204.766 26.6693 204.169 26.464C203.571 26.2587 203.091 25.974 202.727 25.61L203.105 25.078C203.469 25.414 203.907 25.6753 204.421 25.862C204.934 26.0487 205.48 26.142 206.059 26.142C207.029 26.142 207.748 25.9087 208.215 25.442C208.681 24.9847 208.915 24.2707 208.915 23.3V22.068C208.616 22.6 208.201 23.0107 207.669 23.3C207.137 23.5893 206.539 23.734 205.877 23.734C205.195 23.734 204.575 23.5847 204.015 23.286C203.464 22.978 203.03 22.5533 202.713 22.012C202.395 21.4707 202.237 20.8593 202.237 20.178C202.237 19.4967 202.395 18.8853 202.713 18.344C203.03 17.8027 203.464 17.3827 204.015 17.084C204.575 16.7853 205.195 16.636 205.877 16.636C206.549 16.636 207.155 16.7853 207.697 17.084C208.238 17.3827 208.653 17.8027 208.943 18.344V16.692H209.615ZM205.933 23.104C206.502 23.104 207.015 22.9827 207.473 22.74C207.93 22.488 208.285 22.1427 208.537 21.704C208.798 21.256 208.929 20.7473 208.929 20.178C208.929 19.6087 208.798 19.1047 208.537 18.666C208.285 18.2273 207.93 17.8867 207.473 17.644C207.015 17.392 206.502 17.266 205.933 17.266C205.363 17.266 204.85 17.392 204.393 17.644C203.945 17.8867 203.59 18.2273 203.329 18.666C203.077 19.1047 202.951 19.6087 202.951 20.178C202.951 20.7473 203.077 21.256 203.329 21.704C203.59 22.1427 203.945 22.488 204.393 22.74C204.85 22.9827 205.363 23.104 205.933 23.104ZM212.578 13.612H213.278V24H212.578V13.612ZM222.402 20.514H216.116C216.135 21.0833 216.279 21.592 216.55 22.04C216.821 22.4787 217.185 22.8193 217.642 23.062C218.109 23.3047 218.631 23.426 219.21 23.426C219.686 23.426 220.125 23.342 220.526 23.174C220.937 22.9967 221.277 22.74 221.548 22.404L221.954 22.866C221.637 23.2487 221.235 23.5427 220.75 23.748C220.274 23.9533 219.756 24.056 219.196 24.056C218.468 24.056 217.819 23.8973 217.25 23.58C216.681 23.2627 216.233 22.824 215.906 22.264C215.589 21.704 215.43 21.0647 215.43 20.346C215.43 19.6367 215.579 19.002 215.878 18.442C216.186 17.8727 216.606 17.4293 217.138 17.112C217.67 16.7947 218.267 16.636 218.93 16.636C219.593 16.636 220.185 16.7947 220.708 17.112C221.24 17.42 221.655 17.854 221.954 18.414C222.262 18.974 222.416 19.6087 222.416 20.318L222.402 20.514ZM218.93 17.252C218.417 17.252 217.955 17.3687 217.544 17.602C217.133 17.826 216.802 18.148 216.55 18.568C216.307 18.9787 216.167 19.4453 216.13 19.968H221.73C221.702 19.4453 221.562 18.9787 221.31 18.568C221.058 18.1573 220.727 17.8353 220.316 17.602C219.905 17.3687 219.443 17.252 218.93 17.252Z" fill="white"/>
</svg>
