<svg width="166" height="78" viewBox="0 0 166 78" fill="none" xmlns="http://www.w3.org/2000/svg">
<rect y="21" width="125" height="36" fill="black"/>
<rect y="21" width="26" height="36" fill="#202020"/>
<rect x="119" y="18" width="12" height="8" fill="#FF0000"/>
<path d="M3.10769 28.2462H13.9538C17.1231 28.2462 19.7077 29.3077 21.7077 31.4308C23.7077 33.5231 24.6923 36.2615 24.6615 39.6462C24.6615 43.0308 23.6769 45.7692 21.7077 47.8615C19.7385 49.9538 17.1538 51 13.9538 51H3.10769V50.4L5.69231 49.9846V29.2615L3.10769 28.8462V28.2462ZM13.9538 28.9846H8.83077V50.3077H13.9538C16.0769 50.3077 17.7846 49.5692 19.0769 48.0923C20.4 46.6154 21.0615 44.5231 21.0615 41.8154V37.4308C21.0615 34.7231 20.4 32.6462 19.0769 31.2C17.7846 29.7231 16.0769 28.9846 13.9538 28.9846Z" fill="#FF0000"/>
<path d="M29.9831 49.2462V30L27.3062 28.8462V28.2462H32.6139L44.8447 45.4154V30L42.2139 28.8462V28.2462H48.3062V28.8462L45.5831 30V51H44.8447L30.6754 31.0615V49.2462L33.3985 50.4V51H27.3062V50.4L29.9831 49.2462ZM61.3753 35.0769H62.0676V44.0769H61.3753L59.6676 39.8769H55.9753V50.3077H64.883L67.2368 44.0769H67.9753V51H50.2522V50.4L52.8368 49.9846V29.2615L50.2522 28.8462V28.2462H67.3291V34.7538H66.5907L64.3753 28.9846H55.9753V39.1846H59.6676L61.3753 35.0769ZM94.8495 28.8462V28.2462H100.988V28.8462L98.7725 30.0923L90.6495 51.6H90.4187L84.8802 36.2308L79.111 51.6H78.8802L70.8495 29.2615L68.911 28.8462V28.2462H76.8495V28.8462L74.2648 29.2615L80.3572 46.1077L84.511 35.2615L82.3879 29.2615L79.8033 28.8462V28.2462H88.2033V28.8462L85.7572 29.2154L91.9418 46.0615L98.0802 30.1385L94.8495 28.8462ZM115.468 27.6462H116.068V33.5077H115.468L113.438 29.3538C112.022 28.6769 110.484 28.3385 108.822 28.3385C107.161 28.3385 105.853 28.7538 104.899 29.5846C103.945 30.4154 103.468 31.4308 103.468 32.6308C103.468 33.8308 103.807 34.7231 104.484 35.3077C105.161 35.8923 106.145 36.3538 107.438 36.6923L112.561 38.0769C114.222 38.4769 115.453 39.1846 116.253 40.2C117.053 41.2154 117.453 42.7692 117.453 44.8615C117.453 46.9231 116.791 48.5692 115.468 49.8C114.176 51 112.53 51.6 110.53 51.6C108.561 51.6 106.73 51.0769 105.038 50.0308L102.638 51.2769H102.038V43.9846H102.638L105.084 49.2462C106.653 50.3538 108.361 50.9077 110.207 50.9077C112.053 50.9077 113.514 50.4769 114.591 49.6154C115.699 48.7538 116.253 47.5077 116.253 45.8769C116.253 44.7077 115.899 43.8 115.191 43.1538C114.514 42.4769 113.376 41.9385 111.776 41.5385L107.068 40.3385C105.438 39.9077 104.191 39.1692 103.33 38.1231C102.499 37.0462 102.084 35.8 102.084 34.3846C102.084 32.3538 102.668 30.7231 103.838 29.4923C105.038 28.2615 106.591 27.6462 108.499 27.6462C110.407 27.6462 112.038 27.9538 113.391 28.5692L115.468 27.6462Z" fill="white"/>
</svg>
