<svg width="300" height="1024" viewBox="0 0 300 1024" fill="none" xmlns="http://www.w3.org/2000/svg">
<g opacity="0.4" clip-path="url(#clip0)">
<path d="M106.947 1150.68L106.948 0L-224 -1.44662e-05L-224 1150.68L106.947 1150.68Z" fill="black"/>
<path d="M106.947 239.342L106.948 0L-224 -1.44662e-05L-224 239.342L106.947 239.342Z" fill="#202020"/>
<path d="M40.3333 28.6076L40.3332 128.451C40.3332 157.626 30.5749 181.419 11.0573 199.83C-8.17719 218.241 -33.3512 227.304 -64.4667 227.021C-95.5813 227.021 -120.755 217.957 -139.99 199.83C-159.224 181.702 -168.842 157.909 -168.842 128.451L-168.842 28.6076L-163.326 28.6076L-159.507 52.4003L30.9996 52.4003L34.8175 28.6076L40.3333 28.6076ZM33.5452 128.451L33.5452 81.2913L-162.478 81.2913L-162.478 128.451C-162.478 147.995 -155.689 163.716 -142.112 175.612C-128.534 187.792 -109.3 193.881 -84.4081 193.881L-44.1006 193.881C-19.2088 193.881 -0.115878 187.792 13.179 175.612C26.7561 163.716 33.5452 147.995 33.5452 128.451Z" fill="#FF0000"/>
<path d="M-152.719 276.009L24.2107 276.009L34.8175 251.366L40.3333 251.366L40.3333 300.226L-117.503 412.817L24.2107 412.817L34.8175 388.599L40.3333 388.599L40.3333 444.682L34.8175 444.682L24.2107 419.614L-168.842 419.614L-168.842 412.817L14.4523 282.382L-152.719 282.382L-163.326 307.449L-168.842 307.449L-168.842 251.366L-163.326 251.366L-152.719 276.009ZM-22.4612 564.989L-22.4612 571.362L-105.198 571.362L-105.198 564.989L-66.5875 549.269L-66.5875 515.279L-162.478 515.279L-162.478 597.279L-105.198 618.947L-105.198 625.745L-168.842 625.745L-168.842 462.595L-163.326 462.595L-159.507 486.388L30.9997 486.388L34.8175 462.595L40.3333 462.595L40.3333 619.796L-19.4909 619.796L-19.4909 612.999L33.5452 592.605L33.5452 515.279L-60.2232 515.279L-60.2232 549.269L-22.4612 564.989ZM34.8175 873.135L40.3333 873.135L40.3333 929.643L34.8175 929.643L23.3621 909.248L-174.358 834.472L-174.358 832.347L-33.069 781.363L-174.358 728.255L-174.358 726.13L30.9997 652.203L34.8175 634.359L40.3333 634.359L40.3333 707.436L34.8175 707.436L30.9997 683.643L-123.867 739.726L-24.1582 777.964L30.9997 758.42L34.8175 734.627L40.3333 734.627L40.3333 811.953L34.8175 811.953L31.4235 789.436L-123.442 846.368L22.9374 902.875L34.8175 873.135ZM45.8491 1062.94L45.8491 1068.46L-8.0356 1068.46L-8.0356 1062.94L30.1512 1044.25C36.3739 1031.22 39.4848 1017.06 39.4848 1001.76C39.4848 986.468 35.6669 974.427 28.0294 965.645C20.3919 956.863 11.0573 952.472 0.0257643 952.472C-11.0058 952.472 -19.2087 955.593 -24.583 961.825C-29.9572 968.057 -34.1997 977.115 -37.3115 989.018L-50.0402 1036.18C-53.7174 1051.47 -60.2232 1062.8 -69.5578 1070.16C-78.8923 1077.53 -93.1764 1081.21 -112.411 1081.21C-131.363 1081.21 -146.496 1075.12 -157.81 1062.94C-168.842 1051.04 -174.358 1035.89 -174.358 1017.48C-174.358 999.356 -169.549 982.501 -159.932 966.925L-171.388 944.832L-171.388 939.309L-104.35 939.309L-104.35 944.832L-152.719 967.348C-162.901 981.792 -167.993 997.515 -167.993 1014.51C-167.993 1031.5 -164.033 1044.95 -156.113 1054.86C-148.193 1065.06 -136.737 1070.16 -121.745 1070.16C-110.997 1070.16 -102.653 1066.91 -96.712 1060.39C-90.4893 1054.16 -85.5398 1043.68 -81.8626 1028.95L-70.831 985.612C-66.8707 970.607 -60.0817 959.128 -50.4649 951.202C-40.5649 943.552 -29.1087 939.732 -16.0969 939.732C2.57219 939.732 17.5632 945.108 28.8779 955.878C40.1926 966.925 45.8491 981.221 45.8491 998.785C45.8491 1016.35 43.0213 1031.36 37.364 1043.82L45.8491 1062.94Z" fill="white"/>
</g>
<defs>
<clipPath id="clip0">
<rect width="1344" height="524" fill="white" transform="translate(300) rotate(90)"/>
</clipPath>
</defs>
</svg>
